<svg width="192" height="192" viewBox="0 0 192 192" fill="none" xmlns="http://www.w3.org/2000/svg">
  <!-- Fundo transparente para PWA -->
  <circle cx="96" cy="96" r="96" fill="#f8f4fc"/>
  
  <!-- Círculo externo -->
  <circle cx="96" cy="96" r="76" stroke="#64008C" stroke-width="3.5" fill="none"/>
  <circle cx="96" cy="96" r="63" stroke="#23C6AF" stroke-width="2" fill="none" opacity="0.4"/>
  
  <!-- Marcas de horas principais -->
  <line x1="96" y1="25" x2="96" y2="35" stroke="#64008C" stroke-width="3" stroke-linecap="round"/>
  <line x1="167" y1="96" x2="157" y2="96" stroke="#64008C" stroke-width="3" stroke-linecap="round"/>
  <line x1="96" y1="167" x2="96" y2="157" stroke="#64008C" stroke-width="3" stroke-linecap="round"/>
  <line x1="25" y1="96" x2="35" y2="96" stroke="#64008C" stroke-width="3" stroke-linecap="round"/>
  
  <!-- Marcas secundárias -->
  <g opacity="0.6">
    <line x1="135" y1="42" x2="127" y2="50" stroke="#333333" stroke-width="2" stroke-linecap="round"/>
    <line x1="150" y1="57" x2="142" y2="65" stroke="#333333" stroke-width="2" stroke-linecap="round"/>
    <line x1="150" y1="135" x2="142" y2="127" stroke="#333333" stroke-width="2" stroke-linecap="round"/>
    <line x1="135" y1="150" x2="127" y2="142" stroke="#333333" stroke-width="2" stroke-linecap="round"/>
    <line x1="57" y1="150" x2="65" y2="142" stroke="#333333" stroke-width="2" stroke-linecap="round"/>
    <line x1="42" y1="135" x2="50" y2="127" stroke="#333333" stroke-width="2" stroke-linecap="round"/>
    <line x1="42" y1="57" x2="50" y2="65" stroke="#333333" stroke-width="2" stroke-linecap="round"/>
    <line x1="57" y1="42" x2="65" y2="50" stroke="#333333" stroke-width="2" stroke-linecap="round"/>
  </g>
  
  <!-- Ponteiros -->
  <line x1="96" y1="96" x2="70" y2="96" stroke="#64008C" stroke-width="6" stroke-linecap="round"/>
  <line x1="96" y1="96" x2="96" y2="54" stroke="#64008C" stroke-width="4" stroke-linecap="round"/>
  
  <!-- Centro -->
  <circle cx="96" cy="96" r="11" fill="#64008C"/>
  <circle cx="96" cy="96" r="7.5" fill="#ffffff"/>
  <circle cx="96" cy="96" r="5" fill="#23C6AF"/>
  <circle cx="93" cy="93" r="2" fill="#ffffff" opacity="0.8"/>
  
  <!-- Arco decorativo -->
  <path d="M 62 118 Q 96 132 130 118" stroke="#23C6AF" stroke-width="2" fill="none" opacity="0.5" stroke-dasharray="5,5"/>
</svg>
